<svg width="695" height="540" viewBox="0 0 695 540" fill="none" xmlns="http://www.w3.org/2000/svg">
<g clip-path="url(#clip0)">
<path d="M203.036 2.38419e-06L92.359 59.9488C94.2516 63.207 95.4709 66.8119 95.9447 70.55C96.4185 74.2881 96.1371 78.0832 95.1173 81.7106C94.0974 85.3379 92.3599 88.7237 90.0075 91.6672C87.6552 94.6107 84.736 97.0521 81.4228 98.8467C78.1096 100.641 74.4699 101.753 70.7194 102.115C66.9688 102.477 63.1838 102.083 59.5884 100.955C55.9931 99.8275 52.6606 97.9898 49.7886 95.5508C46.9165 93.1118 44.5632 90.121 42.8681 86.7558L5.13055 107.197L102.883 287.665L300.788 180.469L203.036 2.38419e-06Z" fill="#F2F2F2"/>
<path d="M66.3301 96.9359C78.9488 96.9359 89.1783 86.7064 89.1783 74.0877C89.1783 61.4689 78.9488 51.2394 66.3301 51.2394C53.7114 51.2394 43.4819 61.4689 43.4819 74.0877C43.4819 86.7064 53.7114 96.9359 66.3301 96.9359Z" fill="#6C63FF"/>
<path d="M480.948 483.128L600.613 444.095C599.338 440.549 598.788 436.784 598.995 433.022C599.202 429.259 600.163 425.577 601.819 422.193C603.476 418.808 605.795 415.791 608.639 413.319C611.483 410.848 614.794 408.972 618.376 407.803C621.958 406.635 625.739 406.197 629.493 406.517C633.248 406.836 636.9 407.906 640.233 409.662C643.567 411.419 646.514 413.827 648.899 416.743C651.285 419.66 653.061 423.025 654.122 426.641L694.925 413.332L631.278 218.208L417.301 288.004L480.948 483.128Z" fill="#F2F2F2"/>
<path d="M628.762 457.724C641.381 457.724 651.611 447.495 651.611 434.876C651.611 422.257 641.381 412.028 628.762 412.028C616.144 412.028 605.914 422.257 605.914 434.876C605.914 447.495 616.144 457.724 628.762 457.724Z" fill="#6C63FF"/>
<path d="M633.477 107.048H80.9813V358.055H633.477V107.048Z" fill="#3F3D56"/>
<path d="M624.362 116.163H90.0961V344.032H624.362V116.163Z" fill="white"/>
<path d="M570.024 333.165H518.14V350.693H570.024V333.165Z" fill="#3F3D56"/>
<path d="M515.336 346.486H477.474V351.394H515.336V346.486Z" fill="#6C63FF"/>
<path d="M133.567 202.403H337.597L369.23 217.813L419.63 242.368L452.584 180.668H545.835" stroke="#3F3D56" stroke-width="2" stroke-miterlimit="10"/>
<path d="M213.794 202.403L228.921 238.161H266.081" stroke="#3F3D56" stroke-width="2" stroke-miterlimit="10"/>
<path d="M270.504 202.403L322.172 174.357H358.631" stroke="#3F3D56" stroke-width="2" stroke-miterlimit="10"/>
<path d="M213.496 208.713C216.981 208.713 219.806 205.888 219.806 202.403C219.806 198.918 216.981 196.092 213.496 196.092C210.011 196.092 207.186 198.918 207.186 202.403C207.186 205.888 210.011 208.713 213.496 208.713Z" fill="#6C63FF"/>
<path d="M272.392 208.713C275.877 208.713 278.702 205.888 278.702 202.403C278.702 198.918 275.877 196.092 272.392 196.092C268.907 196.092 266.081 198.918 266.081 202.403C266.081 205.888 268.907 208.713 272.392 208.713Z" fill="#6C63FF"/>
<path d="M369.149 217.828L373.355 280.229H409.814" stroke="#3F3D56" stroke-width="2" stroke-miterlimit="10"/>
<path d="M439.367 205.413L399.297 174.357H437.159" stroke="#3F3D56" stroke-width="2" stroke-miterlimit="10"/>
<path d="M505.555 180.668L544.433 211.518H580.892" stroke="#3F3D56" stroke-width="2" stroke-miterlimit="10"/>
<path d="M369.149 224.138C372.634 224.138 375.459 221.313 375.459 217.828C375.459 214.343 372.634 211.517 369.149 211.517C365.663 211.517 362.838 214.343 362.838 217.828C362.838 221.313 365.663 224.138 369.149 224.138Z" fill="#6C63FF"/>
<path d="M505.169 186.978C508.654 186.978 511.479 184.152 511.479 180.667C511.479 177.182 508.654 174.357 505.169 174.357C501.684 174.357 498.859 177.182 498.859 180.667C498.859 184.152 501.684 186.978 505.169 186.978Z" fill="#6C63FF"/>
<path d="M439.262 211.517C442.747 211.517 445.572 208.692 445.572 205.207C445.572 201.722 442.747 198.897 439.262 198.897C435.777 198.897 432.952 201.722 432.952 205.207C432.952 208.692 435.777 211.517 439.262 211.517Z" fill="#6C63FF"/>
<path d="M229.622 243.77H266.081" stroke="#3F3D56" stroke-width="2" stroke-miterlimit="10"/>
<path d="M567.6 63.3023C573.314 63.3023 577.945 58.6704 577.945 52.9567C577.945 47.2429 573.314 42.611 567.6 42.611C561.886 42.611 557.254 47.2429 557.254 52.9567C557.254 58.6704 561.886 63.3023 567.6 63.3023Z" stroke="#3F3D56" stroke-width="2" stroke-miterlimit="10"/>
<path d="M106.573 540C165.431 540 213.146 531.211 213.146 520.368C213.146 509.526 165.431 500.736 106.573 500.736C47.7143 500.736 0 509.526 0 520.368C0 531.211 47.7143 540 106.573 540Z" fill="#F2F2F2"/>
<path d="M179.764 346.122L160.751 355.714L161.982 358.165L180.994 348.572L179.764 346.122Z" fill="#6C63FF"/>
<path d="M176.673 328.28L175.818 333.405C175.818 333.405 177.1 368.852 167.704 357.748C158.308 346.644 164.714 331.697 164.714 331.697L167.277 327.426L176.673 328.28Z" fill="#FBBEBE"/>
<path d="M122.007 164.284C122.007 164.284 120.299 182.221 119.445 183.075C118.59 183.929 132.257 200.158 132.257 200.158L144.215 189.054C144.215 189.054 143.361 172.825 145.923 169.409C148.486 165.992 122.007 164.284 122.007 164.284Z" fill="#FBBEBE"/>
<path opacity="0.1" d="M122.007 164.284C122.007 164.284 120.299 182.221 119.445 183.075C118.59 183.929 132.257 200.158 132.257 200.158L144.215 189.054C144.215 189.054 143.361 172.825 145.923 169.409C148.486 165.992 122.007 164.284 122.007 164.284Z" fill="black"/>
<path d="M90.4038 491.423V506.797L84.4246 507.652L75.8833 505.089L78.4453 488.86L90.4038 491.423Z" fill="#3F3D56"/>
<path d="M82.7162 499.11C82.7162 499.11 80.1538 492.277 75.883 493.131C71.6123 493.985 70.7581 499.11 70.7581 499.11C70.7581 499.11 67.3416 511.922 62.2167 516.193C57.0918 520.464 51.9669 531.568 62.2167 533.276C72.4665 534.984 81.0079 530.713 81.0079 529.859C81.0079 529.005 83.5704 523.88 87.8411 523.026C92.1119 522.172 95.5285 521.318 95.5285 517.901C95.5285 514.485 92.966 511.068 92.966 511.068C92.966 511.068 92.1119 494.866 90.4036 496.988C89.2222 498.664 88.354 500.541 87.8411 502.527L82.7162 499.11Z" fill="#2F2E41"/>
<path d="M127.132 483.735L123.716 496.547L132.257 498.256L136.527 493.985L137.381 482.881L127.132 483.735Z" fill="#3F3D56"/>
<path d="M126.278 494.839C126.278 494.839 129.694 492.277 131.403 492.277H133.965C133.965 492.277 133.965 486.298 138.236 486.298C142.507 486.298 141.652 490.569 141.652 490.569C141.652 490.569 151.048 505.089 153.611 507.652C156.173 510.214 169.839 517.901 158.735 521.318C147.632 524.734 139.944 524.735 134.819 518.755C134.819 518.755 129.694 516.193 126.278 516.193C122.861 516.193 118.59 514.485 118.59 511.922C118.59 509.36 121.153 504.235 121.153 504.235C121.153 504.235 122.861 488.86 123.715 490.569C124.569 492.277 126.278 494.839 126.278 494.839Z" fill="#2F2E41"/>
<path d="M89.5494 287.281V315.468C89.5494 315.468 80.1538 370.134 80.1538 388.071C80.1538 406.008 65.6332 491.423 72.4664 493.131C79.2997 494.839 95.5285 497.402 96.3826 494.839C97.2368 492.277 103.216 411.133 104.07 410.279C104.924 409.424 122.861 341.947 122.861 341.947L126.278 342.801L127.986 419.674C127.986 419.674 119.445 488.86 123.715 488.86C127.986 488.86 145.923 488.006 145.923 482.881C145.923 477.756 155.319 382.946 155.319 382.946C155.319 382.946 166.423 307.781 162.152 300.093C157.881 292.406 157.881 288.135 157.881 288.135L89.5494 287.281Z" fill="#2F2E41"/>
<path d="M136.101 177.523C145.535 177.523 153.184 169.875 153.184 160.44C153.184 151.005 145.535 143.357 136.101 143.357C126.666 143.357 119.018 151.005 119.018 160.44C119.018 169.875 126.666 177.523 136.101 177.523Z" fill="#FBBEBE"/>
<path d="M132.257 189.908C132.257 189.908 121.58 180.94 120.726 177.523C120.726 177.523 115.174 183.075 115.174 183.929C115.174 184.783 91.2577 187.346 85.2787 194.179C79.2996 201.012 74.1747 215.533 74.1747 215.533L88.6953 242.865C88.6953 242.865 89.5495 258.24 89.5495 259.948C89.5495 261.657 85.2787 288.989 86.987 289.844C88.6953 290.698 105.778 299.239 120.299 297.531C134.819 295.823 149.34 293.26 153.611 293.26C157.881 293.26 161.298 294.968 161.298 293.26C161.298 291.552 158.736 288.135 158.736 286.427C158.736 284.719 157.881 280.448 157.881 277.885C157.881 275.323 156.173 271.052 156.173 267.636C156.173 264.219 174.964 218.095 174.964 218.095C174.964 218.095 174.11 203.574 160.444 196.741C146.777 189.908 145.069 187.346 145.069 187.346C145.069 187.346 144.803 182.221 144.082 182.221C143.361 182.221 140.798 189.908 133.965 190.762L132.257 189.908Z" fill="#D0CDE1"/>
<path d="M86.1326 303.51L92.1119 312.905L107.486 309.489L96.3825 296.677L86.1326 303.51Z" fill="#FBBEBE"/>
<path d="M169.839 211.262L174.964 218.095C174.964 218.095 185.214 267.636 183.506 285.573C181.797 303.51 180.089 317.176 180.089 317.176C180.089 317.176 183.506 329.989 180.943 329.989C178.381 329.989 163.006 330.843 163.006 328.28C163.006 325.718 164.715 309.489 164.715 309.489L160.444 271.906L151.048 259.094L169.839 211.262Z" fill="#D0CDE1"/>
<path d="M124.498 152.146C125.545 151.703 126.755 152.063 127.877 151.873C129.194 151.651 130.372 150.675 131.702 150.798C132.332 150.915 132.944 151.114 133.523 151.39C133.813 151.526 134.128 151.602 134.449 151.614C134.769 151.625 135.089 151.572 135.388 151.457C135.531 151.39 135.657 151.293 135.758 151.172C135.858 151.051 135.931 150.909 135.969 150.757C136.008 150.604 136.013 150.445 135.982 150.291C135.952 150.136 135.888 149.991 135.794 149.864C136.919 149.765 137.983 149.307 138.828 148.558C138.997 148.383 139.192 148.237 139.407 148.124C139.658 148.058 139.919 148.045 140.175 148.085C140.431 148.125 140.676 148.217 140.895 148.356L142.85 149.256C143.29 149.412 143.677 149.689 143.967 150.055C144.199 150.418 144.245 150.905 144.574 151.183C144.994 151.537 145.622 151.364 146.171 151.398C146.669 151.447 147.131 151.676 147.471 152.043C147.811 152.41 148.004 152.889 148.014 153.39C148.007 153.963 147.798 154.667 148.252 155.018C148.515 155.221 148.888 155.189 149.197 155.314C149.996 155.638 149.999 156.751 149.881 157.605C149.763 158.459 149.821 159.586 150.642 159.849C151.22 160.034 151.811 159.639 152.412 159.551C153.318 159.418 154.157 159.985 154.963 160.419C155.77 160.852 156.842 161.145 157.541 160.553C158.192 160.003 158.15 158.996 157.971 158.162C157.714 156.968 157.293 155.814 156.718 154.736C156.505 154.419 156.38 154.051 156.355 153.67C156.403 153.401 156.508 153.146 156.663 152.922C156.817 152.697 157.018 152.507 157.251 152.365C158.239 151.584 159.376 150.797 159.696 149.579C159.931 148.684 159.667 147.741 159.687 146.816C159.712 145.691 160.159 144.571 159.95 143.466C159.569 141.462 157.339 140.497 155.899 139.052C153.921 137.067 153.279 133.891 150.944 132.34C149.076 131.1 146.633 131.248 144.506 130.538C142.17 129.758 140.289 127.967 137.984 127.098C136.726 126.634 135.381 126.454 134.046 126.571C132.71 126.688 131.417 127.1 130.259 127.776C129.571 128.285 128.803 128.678 127.987 128.936C127.3 129.016 126.605 129.008 125.92 128.912C124.558 128.842 123.2 129.122 121.977 129.726C121.509 129.913 121.119 130.255 120.873 130.694C120.46 131.611 121.059 133.043 120.155 133.482C119.733 133.686 119.235 133.49 118.767 133.5C117.856 133.52 117.155 134.313 116.721 135.115C116.383 135.962 115.898 136.743 115.288 137.421C114.175 138.397 112.152 138.558 111.861 140.009C111.855 140.624 111.89 141.238 111.965 141.848C111.881 143.134 110.504 144.111 110.576 145.398C110.659 146.883 112.545 147.608 113.049 149.007C113.433 150.072 112.928 151.224 112.58 152.301C112.233 153.378 112.128 154.759 113.026 155.449C113.378 155.719 113.83 155.83 114.189 156.091C115.118 156.767 115.107 158.13 115.003 159.274C114.944 159.512 114.944 159.76 115.002 159.998C115.061 160.236 115.177 160.455 115.341 160.637C115.494 160.73 115.666 160.789 115.844 160.811C116.022 160.832 116.202 160.815 116.373 160.761C116.931 160.626 117.455 160.378 117.914 160.033C118.372 159.688 118.756 159.253 119.04 158.755C119.339 158.26 119.399 157.824 119.943 157.562C120.312 157.383 120.759 157.542 121.135 157.311C122.921 156.212 122.306 153.075 124.498 152.146Z" fill="#2F2E41"/>
<path d="M76.7372 212.97L74.1748 215.533C74.1748 215.533 58.8001 261.657 63.925 271.906C69.0498 282.156 79.2997 307.781 82.7162 306.926C86.1328 306.072 98.0909 298.385 98.0909 297.531C98.0909 296.677 83.5704 272.761 83.5704 272.761C83.5704 272.761 81.8621 267.636 82.7162 266.781C83.5704 265.927 83.5704 266.781 82.7162 265.073C81.8621 263.365 81.8621 265.073 83.5704 263.365C85.2787 261.657 85.2787 261.657 85.2787 260.802C85.2787 259.948 90.4036 238.595 90.4036 238.595L76.7372 212.97Z" fill="#D0CDE1"/>
<path d="M89.9762 313.332L108.768 307.354L111.33 313.332L90.8309 317.603L89.9762 313.332Z" fill="#2F2E41"/>
<path opacity="0.1" d="M89.9762 313.332L108.768 307.354L111.33 313.332L90.8309 317.603L89.9762 313.332Z" fill="black"/>
<path opacity="0.1" d="M115.601 184.356L130.121 196.314L131.83 193.751L115.601 184.356Z" fill="black"/>
<path opacity="0.1" d="M144.642 187.773L134.392 193.751L135.246 196.314L144.642 187.773Z" fill="black"/>
</g>
<defs>
<clipPath id="clip0">
<rect width="694.925" height="540" fill="white"/>
</clipPath>
</defs>
</svg>
